<svg xmlns="http://www.w3.org/2000/svg" viewBox="0 0 640 640"><path opacity=".4" fill="currentColor" d="M96 224L544 224L544 496C544 522.5 522.5 544 496 544L144 544C117.5 544 96 522.5 96 496L96 224z"/><path fill="currentColor" d="M256 96C256 78.3 241.7 64 224 64C206.3 64 192 78.3 192 96L192 128L144 128C117.5 128 96 149.5 96 176L96 224L544 224L544 176C544 149.5 522.5 128 496 128L448 128L448 96C448 78.3 433.7 64 416 64C398.3 64 384 78.3 384 96L384 128L256 128L256 96zM192 320C192 311.2 199.2 304 208 304L432 304C440.8 304 448 311.2 448 320C448 328.8 440.8 336 432 336L208 336C199.2 336 192 328.8 192 320zM192 400C192 391.2 199.2 384 208 384L352 384C360.8 384 368 391.2 368 400C368 408.8 360.8 416 352 416L208 416C199.2 416 192 408.8 192 400z"/></svg>
