<svg xmlns="http://www.w3.org/2000/svg" viewBox="0 0 640 640"><path opacity=".4" fill="currentColor" d="M160.5 96L310 96C327 96 343.2 102.7 355.2 114.8L547.2 306.8C572.2 331.8 572.2 372.3 547.2 397.3L397.7 546.8C372.7 571.8 332.2 571.8 307.2 546.8L115.2 354.8C103.2 342.8 96.5 326.5 96.5 309.5L96.5 160C96.5 124.7 125.2 96 160.5 96z"/><path fill="currentColor" d="M208.5 176C226.2 176 240.5 190.3 240.5 208C240.5 225.7 226.2 240 208.5 240C190.8 240 176.5 225.7 176.5 208C176.5 190.3 190.8 176 208.5 176zM432 114.8C444 102.7 460.2 96 477.2 96L496 96C531.3 96 560 124.7 560 160L560 309.5C560 326.5 553.2 342.8 541.2 354.8L432 464C432 464 432 114.8 432 114.8z"/></svg>
